P2
# Created by GIMP version 2.10.22 PNM plug-in
50 120
255
253
251
255
255
236
212
255
228
94
48
198
242
226
234
247
238
173
180
218
233
194
197
246
252
244
221
182
133
112
126
168
113
106
126
121
115
124
133
138
127
136
161
177
172
131
77
59
74
74
70
254
251
255
255
240
218
252
225
92
55
196
249
241
238
240
229
221
182
198
253
204
204
218
223
225
233
236
216
198
202
167
59
46
64
62
64
56
69
70
59
69
87
90
86
72
51
74
64
60
59
255
252
255
255
238
214
245
221
93
76
201
255
250
230
224
223
245
191
177
230
212
217
253
243
227
228
242
238
227
231
200
59
43
62
68
74
45
55
55
49
58
61
42
35
53
68
83
63
65
68
255
254
255
253
230
203
246
219
94
97
197
238
225
186
194
221
255
226
186
182
194
194
171
175
166
158
164
177
206
242
215
77
54
74
93
98
56
60
68
55
55
55
43
51
85
111
82
75
96
110
254
253
255
250
224
196
245
210
87
113
191
218
204
154
174
222
255
255
222
160
170
157
138
151
151
146
150
155
170
195
218
111
68
77
105
109
70
70
88
62
49
52
60
85
113
123
112
112
122
121
250
249
252
248
224
197
245
197
72
117
182
203
195
145
169
210
252
255
239
170
166
151
147
161
162
162
173
181
191
208
233
162
85
69
99
99
74
73
89
70
59
58
67
95
117
115
137
138
123
105
247
245
249
247
227
202
251
192
61
114
169
185
181
134
168
187
223
217
226
183
171
166
169
184
173
141
125
137
181
231
247
198
93
54
81
78
64
64
71
73
77
70
65
90
116
119
121
133
117
103
245
255
250
255
231
225
247
164
86
130
144
157
161
134
148
156
162
174
197
193
128
52
54
170
162
69
59
81
76
81
211
224
111
55
68
60
73
69
68
148
159
109
78
60
81
141
122
131
125
112
249
255
249
255
225
229
253
147
83
167
181
160
157
161
163
158
164
184
186
143
77
33
69
158
159
91
72
74
61
61
124
204
138
74
75
69
87
90
63
86
142
150
98
83
107
109
117
120
117
110
252
254
249
249
218
234
246
140
95
188
200
170
160
175
182
160
161
186
168
86
27
27
60
111
120
85
67
61
47
37
54
204
183
97
80
74
79
77
79
56
110
158
123
107
127
121
129
128
128
128
252
255
251
245
215
239
236
167
138
197
201
198
179
169
191
162
155
181
161
69
17
43
41
60
72
63
57
63
54
30
29
213
215
109
78
76
68
58
68
55
89
153
171
146
150
184
184
183
179
175
246
255
254
244
219
241
240
202
191
222
214
225
193
162
187
167
158
184
181
96
34
53
40
44
54
56
59
75
65
27
20
203
225
116
73
76
79
84
66
71
129
213
240
215
217
249
241
244
235
221
234
255
251
245
230
241
245
210
213
240
222
227
185
161
186
177
167
198
213
133
51
49
44
41
46
52
54
60
50
24
46
191
224
133
77
74
89
113
98
85
157
226
210
205
229
223
242
250
244
233
222
255
243
243
241
240
241
207
208
218
196
215
182
166
199
187
171
205
234
153
58
50
48
36
34
44
44
37
45
63
116
187
210
151
101
85
86
103
106
96
121
132
107
110
127
112
106
112
112
107
214
255
236
241
248
239
238
212
204
183
160
210
194
176
215
192
167
203
237
155
61
59
60
38
29
44
46
33
66
130
174
182
187
159
129
108
84
78
100
130
102
65
76
67
42
49
50
50
49
44
216
240
230
223
206
203
253
224
179
160
174
190
199
210
185
162
135
195
229
124
43
66
68
57
103
90
45
71
143
221
211
194
192
194
118
72
104
80
118
109
93
75
59
50
51
56
57
46
45
56
198
238
231
225
199
177
218
229
205
155
146
179
184
155
173
148
134
205
201
90
52
67
82
125
139
102
99
108
128
212
237
160
195
252
204
136
98
72
54
67
85
89
71
48
41
47
50
54
56
52
206
251
237
246
215
159
146
198
217
160
119
155
171
127
164
164
147
211
176
76
86
71
75
121
113
75
100
113
101
143
236
156
188
228
233
224
151
95
73
63
67
88
98
87
73
70
63
71
73
67
220
255
235
255
233
154
128
164
195
165
126
150
154
98
139
175
125
169
148
63
87
46
69
57
51
48
67
96
94
76
147
196
239
210
191
204
200
211
185
152
135
156
180
180
170
166
158
156
155
158
195
255
229
243
213
152
164
166
175
158
147
175
155
73
162
197
104
150
166
68
75
49
72
48
45
68
79
86
94
84
81
200
219
198
198
185
209
255
244
231
230
243
247
237
233
238
227
223
227
235
162
248
235
218
184
168
156
174
180
156
154
195
195
139
228
229
119
178
206
83
74
79
56
74
69
90
96
61
72
117
89
191
180
178
226
240
252
248
255
250
247
252
255
250
244
242
242
250
255
255
173
255
244
216
185
200
159
169
168
158
166
198
223
226
249
235
144
185
180
68
65
63
41
58
65
87
64
28
71
118
82
152
198
191
168
184
232
255
255
255
247
242
247
253
247
235
251
255
249
239
207
255
244
227
203
224
222
170
133
154
191
198
208
237
243
241
177
181
136
58
69
34
52
22
49
84
20
18
106
106
62
38
140
174
84
48
102
183
222
249
255
249
230
225
225
222
212
200
162
137
158
172
190
213
222
211
170
192
181
144
146
184
192
166
179
162
162
111
50
42
43
42
43
34
36
44
27
54
113
109
57
37
170
218
106
51
57
60
134
193
243
255
223
230
220
206
217
226
202
162
161
146
146
176
200
195
161
192
177
122
118
174
208
196
162
118
101
65
29
35
38
37
30
42
40
37
44
95
132
85
40
41
175
251
150
58
49
56
44
91
178
255
241
227
209
205
197
196
216
209
178
157
147
180
209
206
152
183
169
119
124
191
227
212
133
71
54
43
28
36
38
41
37
43
23
38
108
183
158
39
25
31
127
226
170
68
53
61
32
32
115
243
252
241
227
229
192
144
161
190
216
217
212
228
241
231
203
219
209
188
207
251
255
223
122
53
42
51
42
40
36
45
40
37
24
83
192
236
158
21
38
29
52
133
129
59
53
55
58
21
64
180
212
234
231
222
194
113
75
91
247
255
255
255
253
243
255
253
247
247
255
255
255
234
161
64
33
42
43
40
32
39
28
32
50
154
247
215
115
32
53
48
25
58
70
38
41
39
54
33
50
120
152
212
233
227
207
153
70
37
248
255
255
255
254
251
254
248
248
252
251
246
249
255
211
85
21
22
33
42
33
35
37
24
42
176
255
183
65
21
37
54
44
40
41
33
38
42
38
49
50
71
88
165
224
255
248
230
144
91
246
253
248
250
255
254
251
250
252
254
252
250
255
255
195
79
25
25
31
38
32
36
49
19
14
148
255
166
40
7
26
43
55
38
33
41
37
47
27
46
31
36
41
91
147
222
250
255
214
168
255
255
248
251
255
244
252
252
250
249
253
252
236
218
134
54
36
43
33
27
23
35
37
21
11
125
226
144
36
19
43
36
50
28
26
43
26
37
36
48
31
51
55
55
68
144
199
235
245
198
209
232
233
237
236
232
241
225
236
229
191
173
152
104
42
45
41
36
39
44
36
21
35
38
13
67
247
136
13
42
41
30
30
42
44
34
29
33
29
50
42
43
49
54
64
48
94
136
182
162
191
186
180
202
207
187
198
170
146
116
86
84
79
50
36
45
45
37
34
38
36
29
35
37
18
60
212
118
18
43
40
31
30
40
42
34
31
36
42
44
50
48
56
139
186
104
30
66
113
108
156
185
190
178
162
143
100
92
76
61
62
74
71
53
33
47
51
38
28
31
36
37
36
37
27
50
155
87
26
43
40
31
29
36
38
33
33
38
45
33
56
46
39
182
255
115
48
40
50
54
126
182
205
174
123
69
52
66
66
64
75
75
56
42
39
51
53
39
28
31
37
38
36
35
35
41
96
57
32
43
39
32
30
34
35
32
34
40
36
28
57
44
21
156
249
126
71
55
62
71
216
231
253
251
198
101
64
68
61
57
63
60
51
52
49
55
51
38
31
36
38
35
35
33
38
35
54
36
36
42
38
34
32
32
31
31
34
39
34
37
53
45
24
115
225
205
44
67
113
123
247
248
251
240
224
167
67
49
43
52
55
52
57
67
51
54
48
37
34
40
39
31
33
31
37
34
33
28
36
39
37
36
34
32
30
30
33
36
42
47
42
37
25
69
182
247
84
93
121
118
229
249
253
218
226
220
80
36
36
62
57
40
38
35
44
49
46
36
34
40
39
32
31
30
34
36
30
29
34
37
36
38
37
33
29
29
31
33
41
45
37
39
26
33
109
171
137
105
93
83
226
239
255
245
251
225
100
38
40
83
80
65
65
56
36
44
44
35
32
38
39
35
30
29
31
38
33
32
32
36
35
39
39
34
29
28
30
30
30
37
42
56
39
27
58
73
107
79
76
79
253
255
251
252
255
204
71
53
109
187
125
44
59
50
32
39
39
35
42
52
46
31
36
35
33
32
32
34
35
36
34
35
35
32
29
28
29
31
34
35
44
38
52
43
31
98
102
77
78
84
247
242
245
255
255
190
49
112
207
235
115
21
49
59
33
38
37
35
44
53
46
30
36
35
34
33
33
33
34
35
35
36
36
34
31
30
31
33
44
37
37
32
48
43
36
99
134
97
76
67
225
233
255
253
192
99
94
164
225
194
76
22
53
51
35
36
35
36
47
55
46
28
37
36
35
34
33
33
33
34
36
37
37
35
32
31
33
35
44
35
32
33
48
44
46
102
130
95
72
63
194
200
189
161
125
101
147
173
181
122
43
40
66
42
38
36
34
37
48
55
45
28
37
36
35
34
33
33
33
32
35
36
36
34
32
31
33
35
38
35
35
39
43
33
49
101
130
100
73
65
58
68
105
124
126
147
128
155
187
131
43
45
71
53
42
38
35
38
48
52
43
30
35
35
35
35
34
34
33
32
33
34
34
32
30
30
32
34
38
41
40
44
33
26
72
133
146
115
75
56
45
37
31
41
95
186
95
127
200
156
46
46
81
68
47
42
38
39
44
46
40
34
33
34
35
35
35
35
34
33
31
33
33
32
30
29
31
34
36
43
43
51
36
43
129
205
162
149
122
111
34
47
50
48
53
95
78
95
185
148
36
56
98
69
51
46
41
40
40
39
38
38
31
32
34
35
36
36
35
35
32
33
34
33
31
31
33
35
35
44
45
57
37
47
150
228
175
185
181
186
26
49
64
68
44
46
56
72
178
146
29
63
109
66
53
48
44
41
37
35
36
40
29
31
33
35
37
37
36
36
33
35
35
34
32
32
35
37
40
50
48
58
27
24
119
185
162
175
170
174
28
63
67
59
44
41
46
70
152
104
19
68
99
56
48
47
55
54
41
39
41
31
38
37
36
35
34
32
31
31
40
27
46
39
38
42
24
42
40
40
40
47
32
26
77
125
131
128
154
144
39
68
63
50
40
47
55
7
23
35
12
28
55
59
39
38
46
48
37
38
41
34
39
38
37
35
33
32
31
30
35
40
53
33
28
30
13
32
40
44
43
39
40
73
133
166
166
135
162
188
47
71
60
43
33
45
41
30
20
21
18
39
63
39
33
30
38
42
34
35
42
37
40
39
37
35
33
31
30
29
23
40
48
35
46
49
31
48
38
45
51
37
38
92
158
188
187
148
168
198
49
63
57
44
29
39
54
50
73
106
60
39
97
98
45
34
37
40
33
34
40
37
40
39
38
35
33
31
29
28
33
41
34
29
40
26
7
27
46
38
47
37
31
64
122
178
189
172
180
178
51
48
53
53
38
45
40
42
101
135
64
86
186
157
71
49
41
42
35
34
39
35
39
39
37
35
33
31
30
29
35
38
29
33
31
14
38
90
106
57
39
32
33
37
70
158
172
165
161
144
56
38
52
64
51
59
26
34
120
147
98
180
255
166
98
64
44
41
37
36
38
32
38
37
36
35
34
32
31
31
25
33
36
43
24
32
123
202
204
130
67
31
41
30
35
140
177
155
142
139
53
38
57
70
53
61
54
14
123
216
187
200
229
195
116
71
40
37
37
39
40
32
36
35
35
35
34
33
33
33
34
38
37
35
7
43
157
209
245
210
131
40
43
38
31
147
204
177
164
171
46
44
65
71
47
53
36
30
152
221
193
196
204
202
123
71
36
33
37
41
41
33
34
34
34
34
34
34
34
34
34
33
30
33
23
88
199
206
216
244
181
50
39
48
49
176
190
179
172
178
55
44
41
49
56
57
58
43
152
187
128
185
246
196
115
64
35
40
42
40
38
31
38
26
28
33
26
26
30
25
35
36
39
44
2
153
228
186
233
255
175
43
51
39
71
167
157
150
173
184
58
56
58
58
51
45
35
51
142
156
126
187
197
108
74
38
17
24
30
34
36
33
18
16
24
24
10
7
18
27
31
34
14
15
26
204
253
175
172
154
107
39
34
63
127
190
164
149
155
164
65
48
50
57
55
53
29
38
104
146
164
188
152
91
60
44
34
35
38
37
35
35
35
23
18
23
31
35
37
38
53
58
43
77
127
249
216
106
60
35
36
34
26
135
230
222
162
157
155
152
96
50
43
59
61
59
47
63
114
170
225
235
193
180
161
162
156
150
148
141
139
146
153
141
126
126
139
143
141
146
150
143
139
200
234
234
132
47
22
26
37
37
17
164
247
166
148
168
172
155
129
66
50
63
55
43
30
89
139
163
218
246
211
202
207
213
202
191
192
189
201
230
221
225
205
178
162
148
157
188
175
162
148
182
180
127
47
32
25
46
40
34
15
142
212
133
142
170
174
155
121
55
45
55
44
40
25
68
124
154
183
176
135
137
130
132
110
96
100
97
121
175
219
198
139
91
78
62
58
84
67
76
62
59
54
33
17
42
24
32
21
32
29
110
205
186
155
168
159
151
97
51
63
65
48
59
63
62
119
174
182
138
84
82
65
66
47
41
47
32
50
116
251
188
81
24
40
39
20
28
14
34
29
17
25
29
35
54
41
36
35
44
29
71
201
212
179
179
162
163
94
82
115
97
60
71
73
75
130
166
168
150
90
39
22
30
24
34
45
18
25
91
255
191
70
6
26
34
24
40
55
54
42
33
44
36
30
35
29
32
53
48
18
57
213
214
195
195
181
184
134
123
103
92
88
84
103
113
114
135
164
137
77
50
43
14
17
48
30
23
27
93
245
191
48
40
23
22
38
10
14
28
37
33
36
35
29
40
40
27
35
40
23
45
174
199
174
174
175
171
117
119
116
110
95
78
116
105
100
129
155
119
68
57
27
36
41
47
25
23
21
86
223
154
41
45
31
20
34
40
45
24
27
31
35
41
38
43
39
26
37
40
19
38
171
203
154
158
165
167
86
111
137
149
136
114
104
84
90
138
162
113
57
48
29
75
97
105
79
43
20
103
217
117
38
53
40
21
42
109
123
44
31
39
34
41
35
29
37
27
39
41
14
30
169
209
147
154
166
172
152
164
179
187
175
156
123
100
103
143
160
117
62
39
34
125
145
115
79
48
18
99
221
90
34
50
39
14
54
181
201
66
38
49
37
44
32
20
36
29
42
42
13
30
171
212
158
164
173
179
228
213
201
199
196
189
179
147
124
126
134
122
84
45
44
164
162
77
38
45
33
103
207
67
28
42
33
2
58
214
227
63
34
50
40
52
37
28
35
32
44
40
17
41
177
206
171
172
173
173
230
209
193
194
202
205
186
153
122
109
119
134
104
44
42
126
133
97
66
43
31
133
180
56
31
45
40
2
68
217
220
51
28
44
37
49
27
30
32
32
41
35
23
60
185
191
179
177
172
167
223
206
194
194
195
193
176
136
105
97
113
138
110
41
39
96
125
143
114
53
20
124
159
59
36
48
51
12
89
217
199
42
27
38
33
42
12
28
27
31
36
27
28
80
192
173
174
175
170
162
196
193
196
202
198
186
205
146
98
83
98
129
110
48
74
160
189
166
129
99
53
99
146
61
34
42
50
16
104
218
175
31
25
34
34
43
11
36
24
29
32
21
31
91
196
161
162
165
162
155
196
189
186
189
180
191
188
157
92
64
83
121
122
58
85
128
112
112
82
59
46
60
80
60
50
52
21
33
132
200
141
49
21
34
38
37
25
27
28
30
35
28
19
92
179
162
169
155
146
147
169
181
188
181
160
169
168
144
88
56
65
110
133
88
90
89
45
53
50
50
30
12
50
50
48
44
24
59
155
198
122
45
30
41
37
33
24
30
33
37
37
25
12
81
166
150
161
159
151
143
157
180
193
180
149
154
127
119
82
50
46
99
154
133
83
90
61
55
15
19
34
35
40
57
55
37
22
71
150
160
96
38
38
48
36
32
28
37
38
41
39
27
9
63
147
146
160
166
162
149
145
153
158
151
124
124
96
103
89
59
37
90
164
156
119
112
78
68
20
26
41
27
37
57
54
37
28
78
141
130
77
32
39
47
36
40
39
44
39
37
36
35
12
42
126
156
160
161
161
159
147
127
117
122
107
104
74
90
94
69
33
78
154
142
130
131
103
91
37
37
44
24
28
40
37
34
35
83
141
127
69
27
34
39
37
51
51
47
40
31
31
42
19
26
108
163
157
145
148
163
155
119
102
115
106
101
55
69
84
69
32
76
146
122
81
109
97
89
41
38
43
35
39
41
31
26
27
69
120
104
65
26
30
32
35
59
55
41
38
33
29
42
30
37
112
166
161
141
146
169
164
139
129
138
123
117
87
89
100
86
49
91
152
112
60
84
56
59
48
52
34
12
51
54
38
23
24
74
125
102
62
27
31
29
32
58
50
28
33
42
33
38
48
81
145
174
164
151
154
170
201
193
195
197
173
165
158
146
143
121
76
111
159
106
71
133
120
100
54
36
32
46
39
53
41
26
39
111
173
146
59
28
34
29
30
54
44
18
28
51
38
34
64
124
182
185
160
156
159
163
196
199
232
222
186
183
171
189
174
176
110
132
168
125
143
185
188
164
92
35
45
40
55
56
35
44
38
111
228
188
72
29
30
39
42
40
23
23
24
33
55
15
74
188
189
163
157
164
167
158
196
195
214
208
189
190
202
196
183
205
137
127
158
132
151
177
154
146
125
61
33
30
64
52
33
51
29
72
190
176
65
21
25
36
32
29
28
50
30
26
37
15
87
200
189
152
163
163
162
164
202
200
200
200
201
205
202
194
188
210
143
120
154
133
141
175
153
143
131
57
18
42
87
58
35
60
21
39
167
185
70
33
24
16
24
46
42
37
55
37
33
30
107
214
193
152
168
165
154
164
207
205
196
201
212
213
177
192
198
196
126
114
166
144
146
178
174
146
101
39
21
47
97
63
35
56
14
35
173
202
44
30
29
32
101
197
192
136
73
55
44
60
120
207
187
158
169
171
152
157
206
205
199
204
212
209
186
201
214
201
121
97
174
177
176
179
188
141
62
35
39
34
79
58
33
46
11
49
184
194
60
40
32
29
91
170
141
67
60
57
55
93
128
188
169
157
170
178
157
156
211
209
211
211
210
212
222
210
223
216
126
68
165
208
184
181
204
139
33
22
45
41
56
55
38
46
18
68
191
174
56
24
30
43
67
90
70
51
59
59
57
119
142
183
163
162
176
176
161
165
219
210
219
213
206
219
238
218
228
214
123
57
165
219
179
177
195
129
39
23
35
55
49
54
39
45
20
76
196
171
46
16
33
45
33
26
32
64
98
76
47
120
148
191
173
177
185
162
155
175
219
203
215
206
196
220
231
226
236
201
115
69
182
220
191
167
154
106
72
53
26
46
48
50
31
35
10
69
197
178
40
23
42
39
17
21
47
91
143
92
29
103
140
193
181
186
192
148
144
179
210
212
215
213
211
212
202
207
223
200
85
74
190
211
172
179
76
117
139
47
50
40
35
55
23
42
41
57
157
174
44
40
52
134
94
15
88
136
145
100
41
46
139
186
175
212
191
146
136
175
201
208
214
215
214
216
209
212
219
189
80
84
208
230
206
165
68
144
173
65
51
39
28
49
43
54
29
11
55
56
74
24
64
161
126
27
14
31
39
29
16
33
106
140
133
174
156
160
164
167
197
206
214
217
218
220
207
214
218
181
73
85
212
228
223
145
84
198
213
78
45
37
24
35
59
67
43
30
50
65
123
23
86
202
182
79
12
16
32
25
25
46
111
146
138
162
156
174
178
167
201
206
214
217
220
224
202
221
232
190
74
82
203
212
195
116
103
226
214
73
39
43
43
42
79
71
41
36
39
67
113
27
110
244
220
106
39
43
38
46
71
92
143
193
201
216
206
189
179
183
202
204
211
216
222
227
206
230
245
200
78
80
201
212
143
66
70
168
152
52
33
46
45
52
103
86
46
35
17
38
71
16
74
205
193
91
50
37
87
127
178
169
168
212
237
246
243
217
202
208
198
201
208
215
221
228
208
225
236
193
73
76
203
224
115
31
21
84
85
37
24
36
33
56
108
90
53
51
43
56
12
33
81
123
72
30
110
192
202
220
234
176
148
213
248
230
234
242
240
224
199
204
211
215
218
222
209
212
218
185
74
77
204
228
142
68
60
97
101
60
24
30
34
69
105
77
36
39
47
49
72
36
15
21
85
166
212
249
235
220
192
106
93
208
255
219
211
238
245
227
204
210
215
215
215
216
213
208
213
191
87
87
207
227
191
140
151
179
167
103
35
37
22
74
110
86
46
46
57
44
54
38
54
45
140
250
225
230
227
219
191
88
63
191
255
208
205
216
222
224
207
202
219
226
216
211
213
213
220
202
100
89
206
240
207
172
208
225
231
162
91
36
5
85
101
60
64
41
41
25
28
29
63
27
207
255
191
221
207
221
229
95
67
189
255
208
205
226
239
236
207
206
222
225
216
216
214
220
237
219
105
86
199
227
183
200
202
217
195
213
152
59
36
64
85
78
63
9
24
33
62
21
31
20
207
255
173
189
213
229
230
86
76
199
245
209
218
232
238
233
208
211
225
220
211
217
217
227
252
231
105
78
188
212
211
228
191
179
162
236
234
117
47
67
91
79
47
21
123
211
224
118
48
5
165
243
185
201
202
227
222
73
100
225
239
223
231
235
233
227
206
212
225
215
205
216
221
228
246
226
102
72
181
212
214
207
196
194
213
237
255
109
8
87
118
78
53
45
155
255
221
146
75
14
131
246
208
193
195
223
200
53
119
239
223
227
237
233
227
224
201
209
224
214
205
215
220
222
227
213
109
74
181
233
218
197
190
210
235
239
243
98
37
120
99
27
39
46
132
227
163
166
122
26
76
235
230
186
214
233
173
33
126
232
208
226
237
230
227
229
197
203
220
216
207
213
214
221
216
212
130
77
170
250
236
224
194
224
215
249
217
102
18
110
116
75
91
60
101
173
204
242
188
42
19
213
255
210
232
240
146
31
147
236
223
246
235
229
230
238
201
201
216
215
203
200
207
229
222
225
152
65
134
239
232
232
231
255
236
229
149
55
58
107
108
63
54
53
137
202
204
250
208
78
18
205
253
202
222
230
122
49
180
242
234
246
231
225
230
241
209
201
212
212
195
185
205
240
233
238
165
49
97
216
255
227
249
242
234
164
93
32
68
78
81
47
50
112
231
250
226
253
204
92
16
188
229
180
203
216
107
65
198
232
218
212
226
221
227
239
187
171
161
164
167
165
179
207
205
239
177
53
85
172
228
240
207
231
213
159
82
54
70
62
63
44
42
129
227
251
235
231
207
114
28
119
234
188
190
171
69
99
204
225
224
205
212
226
213
205
165
161
157
157
152
143
147
188
191
212
154
44
68
134
167
180
161
197
180
123
62
51
52
60
67
40
32
120
221
247
208
232
228
140
32
82
207
217
185
132
79
152
213
201
210
193
202
209
194
189
162
162
161
161
151
138
151
185
174
181
139
49
44
71
132
145
136
164
138
81
46
52
54
57
54
28
31
116
200
215
183
227
236
159
38
37
166
249
209
114
98
206
232
198
212
193
199
199
184
182
182
174
172
175
168
157
171
176
149
156
144
76
43
41
130
150
145
143
104
56
48
51
62
43
30
32
65
135
183
179
171
208
209
157
53
7
105
217
201
107
91
183
210
190
201
181
193
192
185
186
197
185
186
192
187
175
183
174
145
153
152
94
51
48
105
148
163
142
104
76
82
64
51
38
47
83
127
163
173
164
164
186
180
161
91
8
35
112
138
109
91
128
165
174
180
175
184
188
195
199
200
196
203
209
199
181
210
208
189
177
158
95
43
41
67
132
180
169
148
133
142
98
43
70
112
152
171
166
155
150
159
177
172
177
132
32
2
30
66
103
103
98
128
151
157
168
144
150
168
173
195
196
206
210
192
168
200
215
207
186
174
128
59
33
46
111
180
186
179
160
166
109
45
107
160
174
169
157
143
137
146
166
160
159
122
45
23
41
62
99
115
106
123
146
149
155
121
124
142
142
186
186
194
196
175
148
143
168
174
167
192
183
105
51
39
90
161
175
170
142
145
87
40
116
161
152
149
156
151
140
127
148
134
116
79
37
56
92
135
133
149
156
167
188
184
173
172
169
182
176
190
179
186
188
175
168
163
157
166
157
179
224
171
68
39
44
99
149
177
169
98
38
32
91
130
136
142
143
132
122
106
101
99
96
82
70
80
102
134
136
142
150
159
166
170
171
178
186
187
172
181
168
165
162
164
176
181
162
147
141
165
223
211
115
39
24
60
96
109
100
57
33
74
90
97
109
131
131
106
89
98
84
75
75
75
77
94
114
84
96
108
113
116
127
147
164
160
169
175
169
155
167
187
182
165
162
166
158
139
139
138
184
214
130
98
42
31
38
41
39
27
34
98
87
72
83
108
104
81
70
93
89
96
112
123
123
125
132
121
126
131
133
138
153
175
193
181
190
198
199
166
186
210
202
179
175
175
188
173
169
133
157
223
166
107
53
43
53
63
65
43
35
102
107
100
95
101
98
91
95
96
106
127
147
152
148
147
152
156
146
139
146
166
187
199
203
197
201
205
206
218
212
207
194
197
220
204
212
184
171
132
148
223
190
87
58
62
64
75
97
91
86
103
133
135
114
106
109
109
112
115
125
134
134
129
135
160
185
178
164
150
146
153
159
159
155
178
176
173
171
231
225
226
216
211
222
208
202
169
160
146
153
181
146
87
82
101
91
78
90
91
94
94
124
124
100
97
105
100
92
109
118
122
114
106
115
146
174
176
178
176
166
154
149
155
163
182
178
174
172
200
208
231
231
204
185
190
185
166
162
176
179
160
135
100
103
144
153
133
111
78
68
99
119
118
106
111
117
116
118
123
131
138
137
135
139
147
154
154
165
175
176
174
180
196
210
198
197
196
195
183
180
193
196
181
171
157
157
146
139
169
185
166
172
161
122
130
145
147
142
127
132
129
144
149
150
155
157
169
193
206
204
203
204
210
213
207
199
210
205
198
193
190
190
190
190
186
188
189
190
163
170
176
171
154
139
144
145
163
143
148
190
212
215
194
160
161
166
152
169
186
164
162
183
200
205
216
235
244
241
246
255
255
255
255
252
241
229
231
223
213
207
205
203
199
195
201
192
197
206
