P2
# Created by GIMP version 2.10.22 PNM plug-in
42 97
255
173
166
158
155
154
165
182
186
189
189
159
137
149
153
185
184
192
149
159
140
146
159
162
167
171
173
173
171
170
160
159
170
194
211
214
210
209
210
208
205
205
205
173
166
160
157
156
164
181
186
189
188
156
132
143
145
179
181
191
149
160
142
149
158
162
166
170
172
172
170
169
160
159
170
194
211
214
210
209
210
208
205
205
205
174
167
161
159
160
162
180
186
189
186
151
124
133
135
172
178
191
152
164
148
156
160
164
168
172
173
172
170
169
160
159
170
194
211
214
210
209
210
207
205
205
204
173
167
162
162
163
161
180
187
190
184
146
114
120
125
167
178
195
157
171
157
167
166
169
173
176
177
176
174
172
160
159
170
194
211
214
210
209
209
207
206
205
204
170
165
161
162
165
160
181
189
191
183
140
104
107
117
163
180
200
163
177
165
177
172
175
178
181
182
180
178
176
160
159
170
194
211
214
210
209
209
207
206
206
203
167
161
159
162
165
160
182
191
194
183
136
95
96
109
158
179
201
165
179
168
181
174
177
180
182
183
181
178
176
160
159
170
194
211
214
210
209
208
207
206
206
202
163
158
157
160
164
161
183
193
196
184
134
89
87
99
151
175
199
162
176
165
179
172
175
178
179
179
177
174
172
160
159
170
194
211
214
210
209
208
207
207
206
202
160
155
155
159
163
161
184
195
197
184
132
86
83
92
146
171
195
158
171
161
175
168
171
174
176
175
173
170
167
160
159
170
194
211
214
210
209
207
207
207
206
202
151
146
147
154
160
167
180
201
184
174
146
86
87
82
122
161
170
160
155
158
162
158
160
164
170
176
177
172
166
176
155
148
171
203
218
220
219
216
219
214
203
197
149
144
147
156
164
174
187
208
190
179
146
83
82
72
107
140
148
141
136
136
137
137
140
144
149
153
152
147
143
166
146
142
166
198
214
216
216
212
212
205
196
195
146
142
148
159
169
178
193
215
197
183
146
79
75
60
87
113
121
117
114
110
106
112
117
122
125
124
121
117
115
149
132
130
156
189
206
211
213
207
204
195
189
193
147
143
149
163
174
177
192
214
196
182
145
77
73
55
77
99
107
107
105
98
90
101
109
116
116
111
105
103
104
131
115
115
143
176
196
206
211
203
199
190
187
194
151
147
153
166
177
173
186
207
189
176
143
79
78
63
86
109
117
116
112
104
94
110
121
130
129
119
111
112
116
121
106
105
129
161
183
197
206
199
198
193
190
196
159
154
157
168
177
175
185
201
180
169
141
84
87
83
111
138
144
137
128
118
109
128
142
154
152
139
130
133
140
127
109
101
119
145
165
181
194
192
198
198
195
196
168
161
162
169
176
186
191
200
174
163
140
89
97
107
141
173
175
158
140
128
121
143
160
175
172
157
147
153
163
144
121
105
112
130
146
163
178
183
196
203
198
193
173
165
164
169
175
197
198
202
172
160
139
92
103
123
161
195
194
169
146
132
127
150
169
185
182
166
157
164
175
158
131
109
109
121
134
150
165
176
194
205
199
189
174
171
174
180
185
210
215
200
184
169
133
109
122
134
173
188
181
174
150
127
128
153
170
184
181
168
160
168
179
169
142
109
94
102
122
139
148
171
181
191
193
185
180
178
179
182
184
207
213
199
184
170
135
112
126
140
178
191
182
177
156
135
139
156
173
187
186
174
166
171
179
165
139
108
94
101
118
133
140
149
154
161
166
165
186
184
185
186
187
202
209
196
183
172
138
117
132
148
183
192
182
178
161
147
154
161
176
190
192
183
175
175
179
155
132
104
92
99
114
125
129
136
134
136
144
154
186
186
189
193
196
197
205
194
183
174
142
122
138
153
185
191
179
176
164
154
165
166
179
192
197
192
184
180
179
140
120
96
88
96
110
119
121
127
119
115
124
141
183
185
192
201
207
195
203
193
183
175
145
126
142
155
185
188
175
172
162
156
170
172
180
190
197
197
191
183
178
125
107
87
81
91
105
113
115
111
102
96
104
122
181
187
196
205
211
194
202
193
184
176
147
129
145
156
186
188
173
170
161
155
170
177
181
186
193
197
193
184
176
118
99
79
73
83
97
105
107
106
100
97
104
119
186
194
200
205
207
194
203
193
184
177
147
129
145
160
189
191
175
172
162
156
170
181
180
180
187
194
194
185
175
119
99
76
67
75
88
95
97
99
100
102
109
121
191
200
204
203
201
195
203
194
185
177
147
129
145
163
192
194
179
174
163
157
170
183
179
176
183
190
193
183
175
122
101
75
64
68
81
87
89
80
87
93
102
110
181
195
200
196
191
188
191
203
182
170
150
118
150
163
194
190
167
167
169
165
171
181
179
178
180
185
188
187
184
125
106
83
70
70
78
84
87
82
88
94
99
107
176
190
195
191
185
187
189
202
181
169
147
112
141
157
190
190
169
169
171
168
176
182
178
176
178
184
188
189
188
128
109
85
70
70
76
82
84
81
87
94
100
109
168
182
186
180
174
182
185
199
180
169
144
105
130
146
185
190
172
173
175
174
184
183
178
174
175
181
189
193
195
133
113
88
72
70
75
79
81
77
84
92
100
109
160
172
174
167
161
173
177
194
179
170
143
100
120
134
179
191
176
176
176
177
189
182
175
168
168
175
187
196
201
136
116
90
73
70
74
78
79
73
80
89
97
107
154
163
164
158
152
164
170
190
179
173
145
96
112
119
170
189
175
172
170
171
185
175
166
155
153
163
178
193
201
137
117
91
74
71
75
78
80
72
79
87
94
103
149
157
160
157
153
162
168
190
182
177
146
91
102
100
156
180
166
159
153
153
169
159
148
134
131
141
161
181
192
135
115
90
74
72
77
82
83
79
84
91
95
102
145
155
162
164
164
166
173
194
186
179
144
83
90
81
140
167
152
141
131
130
146
139
126
110
106
117
140
163
177
132
113
88
74
73
80
86
88
90
95
99
101
105
143
154
165
172
174
172
178
199
190
180
142
77
81
68
129
157
142
128
116
114
130
124
110
93
88
101
125
150
166
129
111
87
74
74
82
88
91
99
103
106
107
109
189
208
207
199
197
206
200
209
197
189
147
70
63
40
70
77
78
96
97
84
86
79
75
72
76
85
95
101
104
79
80
98
130
154
157
148
141
139
154
163
158
155
189
209
208
202
200
205
199
207
194
186
144
69
64
33
61
65
64
83
90
84
90
87
81
75
75
81
88
94
96
81
82
100
133
159
164
156
150
147
161
168
163
159
186
207
209
204
204
204
198
206
191
182
143
71
69
36
60
60
56
77
90
94
107
110
102
92
86
87
92
95
96
88
88
105
138
165
171
166
161
156
168
173
166
163
180
202
206
203
204
206
200
207
191
182
145
79
81
59
83
80
73
93
110
121
140
146
136
123
114
111
112
112
111
98
98
112
143
169
175
170
166
162
171
173
166
163
173
196
201
200
202
207
202
210
193
185
151
91
98
97
121
118
109
126
141
152
173
174
164
152
143
139
136
134
132
109
106
117
145
168
174
169
165
163
169
168
161
161
171
193
199
199
201
205
201
209
192
185
156
102
113
126
154
155
145
156
163
168
185
181
174
166
160
157
154
149
145
112
107
116
142
164
170
166
163
161
165
163
156
159
173
195
201
201
204
199
196
205
189
183
157
108
123
136
169
174
165
169
166
162
173
174
171
168
167
167
163
157
151
108
103
111
136
159
167
164
163
161
164
160
155
159
177
198
203
204
206
194
191
200
185
180
157
111
128
135
170
179
170
170
161
150
157
167
166
167
170
172
168
161
154
102
97
106
132
156
165
165
164
162
164
160
155
161
184
196
200
198
195
182
187
195
200
160
165
108
112
117
148
170
162
146
140
137
132
139
150
165
176
174
162
145
133
80
85
85
141
150
179
160
167
162
163
164
164
164
188
198
201
198
195
197
198
203
208
170
171
105
102
98
135
162
155
133
123
123
124
136
151
171
182
173
147
115
94
72
79
83
141
151
180
160
166
161
162
164
165
165
199
206
207
204
201
211
207
209
217
182
180
102
87
76
114
148
148
129
117
119
123
146
164
187
197
182
144
99
69
59
71
80
142
152
180
160
166
160
162
165
166
166
201
206
205
201
198
212
205
206
219
190
186
99
75
60
91
127
143
141
136
136
139
155
169
186
190
171
132
88
60
48
64
78
143
153
180
160
166
158
161
165
168
169
193
195
193
190
187
196
191
196
214
189
187
97
70
48
67
100
135
159
166
163
161
161
164
164
155
131
98
64
43
44
63
80
145
153
178
158
165
156
160
166
170
171
188
189
187
184
182
175
175
185
207
183
182
96
72
40
49
79
128
167
182
180
177
181
175
161
140
112
82
56
41
48
68
84
146
151
175
155
164
155
160
167
172
174
175
174
173
170
169
160
165
180
202
176
176
95
77
40
46
77
127
167
181
184
188
194
188
173
152
124
95
71
57
56
75
89
148
149
171
153
163
153
159
167
174
175
150
150
148
146
145
154
161
179
200
172
172
95
81
43
52
84
132
164
175
184
195
186
183
175
159
135
108
83
68
62
80
92
149
148
169
151
162
153
159
167
174
176
143
144
145
146
146
149
165
164
197
173
164
104
78
54
72
102
134
158
171
173
172
172
174
177
176
165
142
114
95
79
82
101
133
157
164
162
161
168
168
171
176
179
149
149
150
150
150
155
169
166
199
174
167
108
83
66
84
111
134
145
148
146
145
154
161
172
181
178
161
138
120
83
86
105
136
160
166
164
162
168
168
171
176
180
164
163
163
162
162
162
175
170
201
176
171
114
91
82
102
125
134
128
117
111
111
127
140
161
182
190
182
164
149
89
92
110
142
165
170
166
165
168
169
172
177
180
180
179
178
177
176
167
179
172
202
177
173
118
96
89
109
129
128
110
91
83
85
100
116
143
170
186
184
169
157
92
96
115
146
169
174
169
167
169
170
172
177
181
182
181
180
179
179
166
178
172
201
176
172
117
95
79
97
113
109
90
73
68
71
83
97
121
145
161
160
149
138
92
96
116
148
172
176
172
169
170
171
173
178
182
167
166
166
165
165
160
173
168
198
174
168
112
89
61
74
85
85
75
66
66
70
78
86
100
115
125
124
115
106
88
93
114
148
172
177
173
171
171
171
174
179
183
146
147
147
147
148
151
166
163
195
171
163
105
80
52
58
65
69
71
73
78
81
83
83
86
90
93
91
84
78
82
87
110
145
171
178
174
172
171
172
175
180
183
134
135
136
137
138
145
161
160
193
168
160
100
74
52
54
58
65
75
84
91
94
88
84
79
76
75
72
67
62
77
84
107
144
171
177
174
172
172
172
175
180
184
166
167
170
174
176
188
190
176
207
175
159
101
86
65
79
87
92
98
112
117
117
121
122
120
116
107
97
86
81
82
78
91
127
159
173
174
175
187
181
169
163
170
186
187
188
190
191
185
188
176
207
178
164
107
92
75
93
108
112
116
125
134
136
140
140
138
134
127
117
108
102
87
81
92
127
159
173
174
175
186
181
170
162
169
197
197
196
194
193
179
183
174
208
182
170
116
102
90
115
137
141
138
144
153
159
161
162
162
159
154
148
141
137
95
86
93
125
158
172
174
174
184
180
170
161
165
199
197
194
191
188
172
177
171
208
185
177
125
112
108
137
163
165
157
157
166
173
174
175
177
178
178
176
174
172
106
92
95
124
156
171
173
173
180
178
170
161
162
189
188
185
181
179
164
171
166
206
187
181
131
120
123
152
177
177
166
164
171
177
176
178
182
186
189
192
194
195
118
99
96
122
154
170
172
172
174
176
170
161
160
157
157
155
154
153
158
165
162
204
186
182
134
123
131
156
176
177
170
170
175
178
175
176
180
185
190
195
199
201
129
106
97
120
152
169
172
171
168
172
169
161
160
131
132
133
135
136
153
161
158
201
184
182
134
124
134
152
168
172
173
178
182
181
177
177
179
181
185
189
193
195
137
111
98
118
151
169
171
170
163
169
169
162
160
133
134
137
141
144
151
159
156
199
183
181
134
123
134
148
161
167
174
184
188
185
180
180
179
180
181
184
186
188
141
114
98
118
150
168
171
170
160
167
169
162
160
143
141
142
147
151
158
172
167
198
176
178
132
116
118
146
167
169
170
180
187
184
182
182
182
182
182
182
181
181
141
110
94
116
153
172
170
163
168
166
164
164
163
176
174
175
179
183
167
181
175
205
182
180
129
110
106
133
156
161
163
172
179
178
184
184
182
181
179
177
176
176
144
111
92
113
151
174
176
173
169
167
165
165
165
191
189
189
193
198
181
193
185
213
187
182
127
104
95
121
146
155
158
165
171
172
185
184
181
179
176
173
171
170
148
114
93
114
153
178
183
182
170
168
167
168
168
191
188
188
192
196
196
203
188
213
187
183
128
106
97
120
146
160
162
164
168
171
181
180
178
176
174
172
170
169
151
119
101
123
161
184
186
182
171
170
169
170
170
193
190
190
193
197
199
201
182
206
183
185
134
113
106
126
153
171
173
169
170
176
176
175
175
174
174
173
173
173
151
122
109
134
172
190
186
178
173
171
170
171
171
181
177
177
180
183
185
187
170
199
183
189
140
120
107
125
155
178
181
173
174
182
175
175
175
175
175
175
175
175
145
119
109
137
176
193
187
177
176
173
171
171
170
155
151
150
153
157
159
167
158
196
188
196
145
121
95
113
146
176
181
172
174
186
179
179
178
177
176
175
174
174
138
111
101
131
172
194
192
185
178
175
171
170
167
142
137
136
139
142
139
151
151
197
193
201
146
120
82
100
135
170
178
170
173
186
185
184
182
179
176
174
172
171
133
105
93
122
167
193
197
193
179
175
172
169
166
146
140
136
136
137
164
169
175
186
200
196
160
121
81
85
133
178
177
169
175
175
180
180
179
179
178
177
177
177
132
100
85
113
159
187
192
189
173
175
174
174
168
151
143
136
135
135
174
176
178
184
196
193
161
125
83
79
117
159
160
155
162
160
166
165
165
165
166
166
167
168
124
94
80
109
154
181
184
181
172
173
174
172
166
156
145
136
132
132
179
179
176
178
189
189
163
132
91
73
95
131
137
137
143
138
145
144
144
144
147
150
153
156
110
83
73
104
149
174
177
173
170
171
172
170
163
154
143
133
129
129
171
171
167
168
180
186
168
143
99
68
75
105
114
119
124
116
120
119
118
120
123
129
136
140
96
73
68
101
146
171
175
173
168
170
170
168
160
149
138
130
127
127
156
158
158
161
175
184
172
151
103
63
60
86
96
102
106
95
95
94
92
92
97
105
114
120
88
68
65
99
144
170
177
177
169
170
170
167
159
147
137
130
128
128
152
158
160
165
177
185
172
151
103
61
55
79
88
92
94
82
79
76
72
72
77
87
97
104
89
69
65
97
139
165
174
176
170
171
172
168
159
150
140
132
130
130
164
171
176
179
186
186
167
144
109
69
65
88
94
96
96
83
78
74
69
67
72
82
94
102
96
74
67
92
130
154
164
168
172
174
174
170
160
155
144
135
132
132
177
186
191
192
193
187
163
136
117
80
78
101
105
104
103
90
85
81
75
72
77
87
99
107
102
78
67
89
123
145
155
160
174
175
176
172
161
151
147
137
126
118
176
178
178
182
191
190
163
132
106
79
84
104
107
112
116
103
91
82
76
85
103
116
116
111
90
90
92
103
124
156
188
209
202
193
183
174
159
149
144
136
126
119
162
166
169
175
188
190
167
137
111
86
91
113
116
120
121
105
94
86
81
90
108
121
122
117
97
94
93
100
118
149
182
204
202
193
184
175
161
144
141
133
125
119
146
153
158
167
182
188
169
144
120
94
102
126
130
133
131
112
101
93
89
98
115
128
130
127
107
102
96
96
110
139
173
197
200
192
184
176
163
140
138
132
125
120
140
148
155
163
178
184
169
146
126
100
108
134
142
146
142
122
107
101
98
106
121
133
137
135
117
110
100
94
102
128
165
191
197
189
182
176
163
143
141
136
130
126
148
156
161
166
176
181
167
146
129
99
103
129
139
147
145
126
109
104
102
108
121
131
135
135
118
112
101
90
94
118
155
183
191
183
177
172
162
155
152
147
142
139
164
172
175
175
180
182
168
148
129
93
88
109
119
130
132
115
102
99
97
101
109
117
122
122
109
104
94
83
84
106
143
172
183
176
171
167
158
173
169
164
159
156
179
187
188
185
187
187
172
154
129
85
70
82
90
103
108
92
89
87
85
86
92
98
102
103
92
90
83
72
72
93
130
160
175
169
164
161
153
186
181
176
171
168
188
195
195
192
191
191
176
159
128
80
56
63
67
81
87
74
78
77
73
75
78
83
86
89
78
79
73
64
63
84
120
150
169
164
159
158
149
197
189
182
180
180
186
195
198
191
188
189
182
171
123
90
57
48
51
55
61
69
68
68
67
63
61
64
71
78
61
65
67
64
66
86
120
148
170
171
150
168
137
192
186
181
180
181
192
201
203
196
193
194
187
176
149
112
72
55
53
54
60
69
61
62
62
60
59
63
71
78
70
76
79
77
80
98
128
152
166
170
152
166
127
188
184
181
182
185
190
199
202
195
192
193
186
175
154
116
75
56
51
52
61
72
78
80
82
82
83
88
96
103
91
97
102
102
103
116
139
158
173
183
168
176
127
172
168
166
168
171
179
188
190
183
180
181
175
163
142
112
83
73
74
77
87
99
79
83
86
88
90
95
103
109
121
126
131
130
128
134
147
159
171
185
173
177
119
147
141
139
142
145
168
177
179
172
169
170
163
152
142
123
110
113
120
122
129
139
151
155
159
162
163
167
173
178
149
152
154
151
145
144
150
156
151
167
156
159
100
135
129
128
131
135
163
172
174
168
165
166
159
148
140
130
129
140
147
146
148
154
155
159
163
164
164
165
169
172
162
163
163
157
150
146
146
148
141
155
144
150
95
127
123
123
129
134
162
171
173
166
163
164
158
146
138
132
136
149
157
154
155
161
175
179
182
182
179
177
179
181
159
159
157
151
145
141
140
141
137
148
136
147
100
112
110
112
119
125
160
169
171
165
162
163
156
145
145
140
145
160
168
168
171
179
171
175
178
176
171
168
167
169
152
151
148
143
139
136
136
136
125
134
121
135
94
110
103
104
113
122
161
161
161
161
159
156
153
151
144
142
143
151
162
170
171
169
181
178
173
168
165
164
165
166
151
150
148
145
142
139
137
136
121
135
143
132
109
